<svg xmlns="http://www.w3.org/2000/svg" width="50mm" height="50mm" viewBox="0 0 50 50"><path d="M21.547 48.032c-6.195-1.179-11.493-4.395-15.123-9.182-1.58-2.082-3.43-5.92-4.118-8.544-.51-1.94-.583-2.667-.598-5.867-.014-3.153.053-3.91.493-5.534 1.241-4.583 2.97-7.736 5.957-10.863 2.713-2.84 5.34-4.643 8.69-5.964 1.548-.61 1.61-.25.338 1.957-1.232 2.136-2.178 4.654-2.682 7.138-.484 2.39-.322 7.235.328 9.8.557 2.195 1.794 4.893 3.183 6.938 1.413 2.081 4.477 5.012 6.66 6.37 1.741 1.084 1.741 1.084 2.147.547.847-1.119 2.398-4.554 2.513-5.567.12-1.045.12-1.045-.595-.61-1.322.807-2.3.376-1.268-.559.694-.627.522-.767-.378-.308-.927.472-2.057.555-2.057.151 0-.147.374-.66.83-1.14.564-.591.688-.817.388-.702-.85.324-1.999.55-2.823.555-1.033.006-1.095-.42-.167-1.146.664-.52.664-.52-.166-.522-.456-.001-1.028-.081-1.272-.177-.438-.173-.437-.18.033-.563.472-.386.468-.39-.675-.78-2.437-.828-2.795-1.798-.608-1.645 1.262.088 1.23-.023-.157-.56-1.992-.77-5.124-3.358-5.124-4.233 0-.206.21-.331.557-.331.632 0 3.736.803 7.248 1.875 2.381.727 2.381.727 1.937.009-.47-.762-.566-1.34-.254-1.533.212-.13 3.789 2.24 4.738 3.14.657.624 1.163.467 1.011-.313-.058-.3-.239-.392-.664-.343-.32.038-.643-.027-.715-.145-.075-.12.05-.166.286-.104.607.158.731-.22.334-1.016-.394-.79-.216-1.61.569-2.607.57-.725.573-1.025.01-.846-.732.232-.951-.107-.367-.566.313-.247.598-.768.686-1.256.293-1.616 1.131-3.088 2.135-3.751.837-.552 1.14-.623 2.621-.61 1.295.012 1.901.132 2.671.528.87.447 1.372.817 3.13 2.31.2.17.435.827.522 1.46.15 1.087.12 1.192-.529 1.862-.832.858-.875 1.51-.134 1.996.626.41.705.953.228 1.583-.438.58-.432 1.067.012.896.223-.086.315-.034.253.143-.054.152-.262.263-.462.246s-.363.063-.363.179-.1.148-.222.073c-.121-.075-.221-.374-.221-.664s.1-.59.221-.664c.351-.217.26-.741-.249-1.43-.325-.44-.44-.85-.37-1.326.073-.495.034-.622-.137-.45-.132.131-.252.695-.268 1.253-.024.87-.145 1.12-.85 1.766-.708.649-.925.733-1.576.611-1.043-.196-.994.252.148 1.357 1.101 1.066 1.598 1.992 2.122 3.961.467 1.752.652 1.876 3.097 2.095 1.585.141 1.585.141.83-.694-.678-.75-.754-.967-.754-2.137 0-1.12.062-1.318.448-1.42.339-.088.851.282 2.103 1.518.91.898 1.655 1.774 1.655 1.946 0 .173.355.584.79.916 1.026.783.838.968-.241.236-.858-.582-1.746-.734-1.99-.34-.077.124-.232.168-.345.098s-.427.028-.698.218c-.344.24-.39.345-.155.345.185 0 .456-.12.602-.266.207-.206.266-.185.266.095 0 .492-1.047 1.278-1.701 1.278-.294 0-.804-.136-1.133-.301-.947-.477-1.815-.633-1.815-.326 0 .733 1.89 6.937 2.298 7.541.6.89 1.623 1.181 2.648.753q1.78-.745.727 1.05c-2.945 5.025-8.517 9.138-14.483 10.69-2.684.699-7.443.9-9.956.422" style="fill:#000;stroke-width:.221388"/></svg>