<svg xmlns="http://www.w3.org/2000/svg" width="50mm" height="60mm" viewBox="0 0 50 60"><path d="M16.404 58.302c-4.89-.528-8.5-2.247-11.663-5.555-1.55-1.62-2.8-3.624-3.406-5.458-.353-1.067-.543-2.515-.48-3.648.149-2.697 1.29-4.871 3.592-6.843.921-.79 1.638-1.232 4.012-2.477 1.204-.632 2.569-1.375 3.032-1.653 3.387-2.025 4.916-4.149 4.912-6.818-.003-1.588-.532-3.02-1.504-4.072-.991-1.072-1.983-1.516-3.377-1.514q-2.033.003-3.288 1.253c-1.157 1.153-1.496 2.801-.861 4.188.52 1.136 1.576 1.983 3.376 2.706.876.352 1.131.502 1.285.755.511.837-.053 1.799-1.05 1.789-.458-.005-1.904-.572-2.831-1.11-1.042-.607-2.38-1.965-2.866-2.91-.892-1.737-.884-3.608.026-5.45 1.586-3.212 5.903-4.6 9.207-2.961 2 .993 3.393 2.754 4.033 5.1.31 1.14.337 3.148.055 4.227-.708 2.713-2.778 4.96-6.686 7.258-.476.28-1.645.932-2.598 1.45-2.185 1.186-2.9 1.661-3.71 2.463-2.324 2.303-2.989 5.008-1.95 7.94.594 1.681 2.01 3.517 3.723 4.83 1.092.836 1.107.823 1.193-.979.177-3.709 1.32-6.72 3.834-10.11 1.69-2.278 3.723-4.398 8.05-8.394 3.556-3.283 3.929-3.644 5.374-5.212 2.995-3.25 3.706-5.08 3.706-9.546 0-2.006.141-2.987.652-4.545 1.144-3.493 3.845-6.839 7.498-9.29.805-.54 3.45-1.94 3.524-1.865.018.019-.083.398-.226.844-.285.896-.441 2.027-.351 2.551l.058.34.483-.302c.61-.38 2.33-1.269 2.72-1.404l.293-.103-.233.687c-.339.995-.498 2.079-.423 2.882.035.381.039.693.008.693s-.2-.074-.374-.164a8 8 0 0 0-.868-.354 3.9 3.9 0 0 1-.95-.506c-.476-.377-.512-.28-.105.282.358.493.639.7 1.639 1.201 1.504.754 2.55 1.66 3.356 2.907.696 1.075 1.232 2.696 1.381 4.172.08.795.312 1.67.528 2 .115.176.252.24.509.24.458 0 .708.142.897.508.272.526.134 1.091-.325 1.337-.14.075-.455.447-.7.828-.601.928-2.053 2.345-2.725 2.66-.812.38-1.463.474-3.308.476-2.771.003-3.851.355-4.405 1.435-.475.926-.376 1.82.567 5.137.775 2.724.982 3.935.986 5.752.003 1.61-.201 3.207-.691 5.399-.975 4.36-1.363 7.25-1.17 8.708.278 2.081.99 2.933 2.601 3.114a10 10 0 0 1 1.143.19c1.044.283 2.2 1.507 2.577 2.728.249.804.257 1.163.038 1.623-.3.633-.39.648-3.906.648-3.612 0-3.55.012-4.439-.83-1.175-1.111-2.272-3.376-3.156-6.52l-.248-.881.258-.583c.396-.894.583-1.832.59-2.951.009-1.235-.133-1.87-.67-3.005-.341-.725-.556-1.012-1.313-1.755-.745-.733-1.07-.97-1.847-1.345-1.358-.657-2.228-.873-3.8-.944-2.096-.094-4.02.315-5.851 1.246-1.026.521-1.162.69-.237.294.459-.196 1.353-.475 1.987-.62 3.358-.764 6.73.06 8.793 2.147 1.215 1.23 1.8 2.616 1.805 4.284.004 1.166-.136 1.793-.649 2.9-.497 1.076-1.024 1.793-1.993 2.712l-.759.72.655.006c1.797.017 3.528 1.765 3.624 3.66.035.687.02.743-.27 1.07l-.308.344-4.007.064c-6.554.104-10.599.08-12.003-.071zm29.032-41.997.254-.168-.305-.03c-.937-.088-1.399-1.053-.824-1.721.212-.247.318-.285.765-.279l.519.008-.224-.239c-.53-.564-1.49-.553-2.067.023-1.233 1.233.433 3.363 1.882 2.406" style="fill:#000;stroke-width:.101865"/></svg>