<?xml version="1.0" encoding="UTF-8" standalone="no"?>
<svg
   xmlns:dc="http://purl.org/dc/elements/1.1/"
   xmlns:cc="http://creativecommons.org/ns#"
   xmlns:rdf="http://www.w3.org/1999/02/22-rdf-syntax-ns#"
   xmlns:svg="http://www.w3.org/2000/svg"
   xmlns="http://www.w3.org/2000/svg"
   width="50mm"
   height="60mm"
   viewBox="0 0 50 60"
   version="1.1"
   id="svg8">
  <defs
     id="defs2" />
  <metadata
     id="metadata5">
    <rdf:RDF>
      <cc:Work
         rdf:about="">
        <dc:format>image/svg+xml</dc:format>
        <dc:type
           rdf:resource="http://purl.org/dc/dcmitype/StillImage" />
        <dc:title></dc:title>
      </cc:Work>
    </rdf:RDF>
  </metadata>
  <g
     id="layer1">
    <path
       style="fill:#000000;stroke-width:0.101865"
       d="M 16.404063,58.30182 C 11.513899,57.77406 7.9043035,56.055 4.7405195,52.74708 3.1917985,51.12779 1.9411295,49.12347 1.3350035,47.289378 0.98215548,46.221688 0.79150548,44.774197 0.85441248,43.640549 1.0040465,40.944005 2.1456005,38.769813 4.4471885,36.797773 c 0.921283,-0.789369 1.637821,-1.231767 4.011404,-2.476677 1.204553,-0.631768 2.5692445,-1.375468 3.0326455,-1.652662 3.386533,-2.02572 4.916039,-4.149027 4.911319,-6.818033 -0.0027,-1.588872 -0.531441,-3.020279 -1.503813,-4.071991 -0.991124,-1.07199 -1.983035,-1.516858 -3.377223,-1.514672 -1.354929,0.0021 -2.4514255,0.420088 -3.2871295,1.252993 -1.157584,1.153702 -1.496676,2.801584 -0.861837,4.188254 0.519969,1.135761 1.576798,1.982832 3.3760105,2.705944 0.876079,0.352103 1.131828,0.50225 1.285922,0.754949 0.510571,0.83729 -0.05374,1.799109 -1.049677,1.789099 -0.459148,-0.0046 -1.9052415,-0.57182 -2.8318125,-1.110722 -1.042278,-0.6062 -2.380237,-1.964538 -2.865916,-2.909568 -0.892533,-1.736681 -0.88362,-3.607733 0.02596,-5.449778 1.586234,-3.212374 5.9029515,-4.600676 9.2065185,-2.960913 2.000949,0.993194 3.393677,2.754358 4.033134,5.100078 0.310685,1.139697 0.336976,3.147761 0.05534,4.227398 -0.70771,2.712998 -2.777806,4.960052 -6.686036,7.257584 -0.476218,0.279954 -1.64512,0.932185 -2.5975575,1.4494 -2.185715,1.18694 -2.900505,1.661574 -3.7098,2.463375 -2.324352,2.302821 -2.989286,5.008539 -1.951536,7.941096 0.594522,1.680053 2.010787,3.516483 3.723793,4.828543 1.092102,0.83648 1.107407,0.82394 1.193451,-0.9782 0.177097,-3.70927 1.318898,-6.72046 3.8338575,-10.110765 1.689735,-2.277858 3.72248,-4.397203 8.050179,-8.393135 3.555855,-3.283255 3.928298,-3.644533 5.373151,-5.212038 2.995132,-3.249389 3.706087,-5.08034 3.706819,-9.546349 3.08e-4,-2.005617 0.140983,-2.987141 0.651291,-4.544977 1.144129,-3.4927102 3.844878,-6.8388222 7.4982,-9.2899442 0.804792,-0.539958 3.449225,-1.939239 3.523847,-1.864616 0.01825,0.01825 -0.08313,0.397935 -0.225288,0.843738 -0.28564,0.895726 -0.441689,2.027206 -0.351834,2.551055 l 0.05829,0.339829 0.483461,-0.301583 c 0.6097,-0.380335 2.330334,-1.269276 2.719178,-1.404829 l 0.293845,-0.102435 -0.233446,0.686357 c -0.338512,0.995278 -0.497491,2.079237 -0.422805,2.882828 0.03538,0.380777 0.03883,0.692322 0.0076,0.692322 -0.03119,0 -0.199407,-0.0738 -0.373825,-0.163991 -0.174417,-0.0902 -0.564862,-0.249225 -0.867655,-0.353401 -0.302792,-0.104176 -0.730798,-0.332187 -0.951131,-0.506692 -0.475569,-0.376657 -0.51127,-0.279779 -0.104062,0.282359 0.357486,0.493496 0.638976,0.699765 1.638898,1.200948 1.504298,0.753988 2.550765,1.6602372 3.356345,2.9066382 0.69538,1.07588 1.23183,2.696459 1.38109,4.17215 0.0804,0.794922 0.3113,1.670941 0.52731,2.000616 0.11517,0.175762 0.25206,0.240414 0.50904,0.240414 0.4582,0 0.70802,0.141232 0.89732,0.507285 0.27191,0.525823 0.13435,1.091395 -0.32528,1.337382 -0.13909,0.07444 -0.45431,0.446704 -0.70049,0.827254 -0.60045,0.928208 -2.05186,2.345715 -2.72396,2.660348 -0.81252,0.380363 -1.462804,0.473887 -3.308382,0.475805 -2.77088,0.0029 -3.85101,0.35475 -4.405092,1.43503 -0.474865,0.925824 -0.376039,1.820665 0.567388,5.137618 0.774573,2.72329 0.982266,3.934855 0.985912,5.75125 0.0031,1.610142 -0.201271,3.207214 -0.691313,5.398843 -0.974966,4.360359 -1.362986,7.251066 -1.168988,8.708866 0.276909,2.08086 0.988292,2.93264 2.600209,3.11341 0.414808,0.0465 0.929016,0.13204 1.142684,0.19005 1.043936,0.2834 2.200631,1.50747 2.577498,2.72763 0.248364,0.8041 0.256834,1.16339 0.03827,1.62394 -0.300171,0.63256 -0.390696,0.64756 -3.906284,0.64756 -3.611793,0 -3.549399,0.0117 -4.438799,-0.82949 -1.175699,-1.11193 -2.272122,-3.377 -3.15622,-6.52036 l -0.247911,-0.88143 0.257933,-0.58322 c 0.395312,-0.89388 0.58288,-1.831436 0.590361,-2.950905 0.0082,-1.234835 -0.133368,-1.870361 -0.669627,-3.005018 -0.34227,-0.7242 -0.557182,-1.011288 -1.313656,-1.754818 -0.74534,-0.732593 -1.07022,-0.969134 -1.846856,-1.344688 -1.357997,-0.656674 -2.228239,-0.872779 -3.800913,-0.943862 -2.095999,-0.09474 -4.019448,0.314697 -5.850962,1.245469 -1.02569,0.521249 -1.161577,0.690719 -0.236133,0.294487 0.458398,-0.196266 1.352264,-0.474945 1.98637,-0.619282 3.358696,-0.764529 6.730351,0.05826 8.793413,2.14586 1.215073,1.229526 1.799478,2.616548 1.805138,4.284298 0.004,1.165829 -0.136426,1.793309 -0.648901,2.900489 -0.497884,1.07567 -1.024747,1.79219 -1.99385,2.71162 l -0.758315,0.71945 0.654253,0.006 c 1.797302,0.0169 3.528494,1.76517 3.624614,3.66036 0.03484,0.68687 0.02052,0.7434 -0.270749,1.06958 l -0.307537,0.34437 -4.006723,0.0638 c -6.554147,0.10441 -10.59882,0.0804 -12.003125,-0.0711 z m 29.031531,-41.996559 0.25466,-0.168265 -0.3056,-0.02906 c -0.93695,-0.0891 -1.398529,-1.054398 -0.82361,-1.722432 0.2119,-0.246211 0.31786,-0.284776 0.76483,-0.27835 l 0.51885,0.0075 -0.22393,-0.238367 c -0.52998,-0.564138 -1.489797,-0.5534 -2.06631,0.02312 -1.233018,1.233017 0.43243,3.363092 1.88111,2.4059 z"
       id="path847" />
  </g>
</svg>
