<svg xmlns="http://www.w3.org/2000/svg" width="50mm" height="60mm" viewBox="0 0 50 60"><path d="M12.799 54.996c-.395-.093-.738-.295-1.053-.62-.274-.281-.666-1.036-1.946-3.74-.169-.357-1.574-3.288-3.123-6.515a2645 2645 0 0 1-2.984-6.232c-.14-.298-.156-.394-.095-.529.119-.26.342-.201.927.248 1.92 1.47 4.335 2.389 6.82 2.592.533.044.872.104.98.175.11.072.398.589.847 1.518.374.775 1.53 3.174 2.567 5.332l1.888 3.922v.649c0 .539-.027.701-.158.968-.298.606-.603.837-1.97 1.493-1.689.812-2.012.9-2.7.739m1.486-2.657c.637-.301 1.21-.615 1.272-.697.252-.33.19-.81-.145-1.109-.296-.263-.668-.184-1.862.397-1.129.549-1.346.733-1.346 1.138 0 .37.439.807.82.816.056.002.624-.243 1.261-.545m-3.822-13.703c-1.31-.243-2.19-.537-3.346-1.117-1.078-.542-1.841-1.101-2.762-2.024-1.137-1.14-1.81-2.17-2.311-3.541-.37-1.01-.45-1.507-.448-2.808.001-1.088.018-1.254.189-1.876.35-1.274.969-2.369 1.884-3.331 2.804-2.95 7.667-3.603 11.775-1.584.862.424 1.733.987 1.98 1.28l.169.2.002 5.538.005 6.39c.004 1.36.006 1.338-.174 1.553-.31.369-1.72.965-2.965 1.256-.874.203-3.057.238-3.998.064m.618-7.23c.358-.163.742-.615.85-1.002.185-.659-.11-1.395-.707-1.764-.277-.17-.4-.203-.783-.204-.94-.003-1.58.63-1.58 1.563 0 .632.295 1.124.835 1.391.372.184.998.191 1.385.015m8.504 6.418a1.2 1.2 0 0 1-.358-.324c-.13-.196-.133-.382-.133-7.015 0-6.74 0-6.817.139-7.04.26-.42.49-.458 2.533-.42 2.004.038 2.322.088 3.193.506.712.341 1.457 1.086 1.794 1.795.5 1.05.493.967.493 5.116 0 3.679-.002 3.724-.158 4.268-.354 1.238-1.128 2.185-2.23 2.727-.863.424-1.096.46-3.172.487-1.71.022-1.896.013-2.101-.1m16.954-.225c-.347-.081-2.684-1.19-2.983-1.414-.348-.261-.462-.406-.693-.883-.19-.39-.205-.476-.183-.99l.025-.56 2.557-5.316c1.86-3.864 2.607-5.352 2.737-5.448.14-.102.361-.146.99-.193a13 13 0 0 0 6.813-2.583c.576-.435.8-.501.922-.273.098.182.099.18-.68 1.786-.368.761-1.484 3.088-2.48 5.17-4.437 9.283-4.68 9.777-4.943 10.048-.585.6-1.326.834-2.082.656m1.077-2.206c.262-.11.51-.46.51-.72a1 1 0 0 0-.138-.398c-.113-.186-.334-.321-1.21-.742-.59-.283-1.2-.53-1.355-.548-.25-.03-.312-.007-.537.2-.212.193-.256.28-.262.516-.013.462.148.606 1.321 1.186.581.287 1.133.536 1.227.553s.18.035.19.04c.01.006.125-.033.254-.087m-1.053-14.094a10 10 0 0 1-3.172-1.04c-.734-.4-.663.37-.656-7.169.005-4.838.028-6.642.086-6.77.043-.095.356-.358.694-.584 2.884-1.929 6.489-2.466 9.588-1.427 2.965.993 4.98 3.2 5.56 6.09.122.603.14 1.919.035 2.579-.273 1.736-1.172 3.51-2.475 4.887-1.591 1.68-3.605 2.793-5.981 3.302-.565.12-.984.157-1.979.173-.694.01-1.459-.008-1.7-.041m4.195-7.369c.13-.08.335-.289.455-.463.275-.4.339-1.005.157-1.48-.146-.383-.617-.805-1.026-.92-1.158-.324-2.269.785-1.945 1.941.098.352.463.81.775.973.462.242 1.145.22 1.584-.05m-13.824 6.554c-1.701-.22-3.132-1.381-3.616-2.935-.25-.802-.278-1.346-.252-4.846.025-3.211.033-3.4.174-3.908.421-1.517 1.425-2.533 2.949-2.986.46-.137.698-.155 2.398-.182 2.11-.033 2.243-.01 2.512.425.136.219.138.324.138 7.026 0 7.645.04 7.069-.515 7.337-.255.124-.413.135-1.843.126-.86-.004-1.736-.03-1.945-.057" style="fill:#000;stroke-width:.0682206"/></svg>