<svg xmlns="http://www.w3.org/2000/svg" width="50mm" height="50mm" viewBox="0 0 50 50"><path d="M24.35 48.071c-.343-.103-.952-.282-2.548-.748l-1.374-.401c-.96-.28-1.62-.473-3.597-1.047-.824-.24-1.537-.456-1.585-.482-.083-.044-.088-.592-.088-10.432 0-6.397.018-10.396.047-10.414.026-.016 1.908.321 4.183.75 2.275.428 4.452.837 4.836.908s.716.154.736.184.037 4.949.038 10.931c0 10.877 0 10.877-.137 10.87a3 3 0 0 1-.512-.119m1.069.057c-.012-.03-.016-4.945-.009-10.92.013-10.864.013-10.864.213-10.904.11-.022 2.273-.429 4.808-.903 4.608-.863 4.608-.863 4.595 9.58s-.012 10.443-.387 10.551l-7.484 2.157c-1.126.325-1.722.476-1.736.44M7.072 43.05c-2.07-.628-3.778-1.155-3.794-1.171s-.046-.9-.066-1.963L2.95 25.669c-.035-1.882-.055-3.432-.045-3.444s.326.038.703.11a3454 3454 0 0 1 5.656 1.084c.865.166 1.624.313 1.686.327.112.027.112.027.112 10.24 0 10.215 0 10.215-.112 10.21-.062-.003-1.807-.52-3.878-1.147m32.125-9.076c.013-10.224.013-10.224 1.211-10.46.66-.13 2.48-.485 4.046-.79s2.879-.566 2.917-.58c.06-.02.065.247.036 1.764-.062 3.181-.174 9.934-.23 13.8-.031 2.074-.067 3.865-.08 3.98-.03.248.16.173-1.968.786-.81.234-1.946.562-2.523.73l-2.173.628c-.618.178-1.152.333-1.186.345-.05.017-.06-2.03-.05-10.203M20.053 24.99l-4.882-.918c-.033-.002-.008-8.492.025-8.493.02 0 .925.136 2.01.301 1.085.166 3.277.499 4.87.74 2.898.438 2.898.438 2.91 4.829.007 2.414-.004 4.405-.025 4.424-.02.018-2.229-.38-4.908-.883m5.37.888c-.053-.053-.026-8.793.028-8.826.047-.03.88-.16 4.942-.774l1.973-.3c1.925-.299 2.584-.398 2.626-.398.029 0 .047 1.665.047 4.258 0 4.259 0 4.259-4.084 5.029l-4.795.903c-.391.074-.723.122-.737.108M8.74 22.893a2746 2746 0 0 0-4.67-.898 301 301 0 0 1-2.53-.49 57 57 0 0 1-.064-1.23c-.31-6.65-.319-6.846-.284-6.88.018-.018.79.083 1.717.225s3.113.474 4.857.738 3.2.489 3.235.5c.049.014.062.906.062 4.24 0 3.991-.005 4.223-.087 4.217-.048-.003-1.054-.193-2.236-.422m30.422-3.779c-.02-2.335-.018-4.21.006-4.232.049-.043 9.87-1.556 9.901-1.525.018.018-.17 4.368-.294 6.842-.025.495-.046.98-.047 1.078-.002.18-.002.18-1.213.415-3.593.697-4.423.858-6.206 1.202-1.072.207-1.985.385-2.03.395-.073.018-.083-.349-.117-4.175m-18.783-3.209c-4.947-.753-5.061-.771-5.093-.823-.026-.042 1.64-.51 3.195-.898a85 85 0 0 1 5.457-1.16c.364-.063.662-.13.662-.148s-.118-.082-.262-.143c-.452-.19-.627-.329-.693-.55-.033-.11-.088-.2-.122-.2s-.318.043-.631.097c-2.985.51-5.91-.046-7.683-1.46-1.005-.801-1.622-1.676-1.876-2.659-.123-.476-.123-1.419 0-1.898a4.66 4.66 0 0 1 1.575-2.43c.482-.387.867-.6 1.428-.787 1.966-.658 4.102.173 5.87 2.282 1.096 1.31 2.09 3.276 2.44 4.831.064.282.11.395.159.383.037-.009.22-.029.407-.044.314-.027.34-.038.368-.159.233-1.027.477-1.722.943-2.677 1.232-2.527 2.989-4.196 4.945-4.7 3.408-.876 6.604 2.67 5.251 5.826-.483 1.129-1.63 2.239-2.931 2.836-1.745.802-3.92 1.04-6.19.68-.26-.042-.525-.088-.587-.104-.092-.023-.113-.008-.113.08 0 .27-.273.56-.698.74-.222.094-.222.094.875.305 2.071.4 4.036.865 6.252 1.483 1.152.321 1.588.463 1.547.504-.027.027-.299.07-5.193.814-2.618.398-4.415.65-4.62.646-.185-.003-2.292-.303-4.682-.667m8.667-4.628c1.087-.097 2.06-.37 2.958-.827 1.554-.792 2.595-1.922 2.917-3.163.153-.592.078-1.721-.151-2.27-.063-.15-.1-.175-.308-.206-.389-.058-1.506.012-1.92.121-1.032.271-1.665.582-2.572 1.26-1.178.88-2.277 2.23-3.044 3.74-.37.726-.396.825-.198.75.381-.145.888-.509 1.393-1 .303-.294.622-.57.71-.616.31-.157.848-.054 1.08.209.123.137.229.441.231.665.002.178-.165.489-.341.634-.208.17-.947.471-1.472.599-.319.077-.594.155-.61.172-.036.035.477.009 1.327-.068m-6.838-.047c-1.614-.319-2.352-.944-2.015-1.706.141-.32.387-.492.749-.524.384-.035.561.058 1.11.583.234.223.573.505.753.626.331.222.791.446.832.405.03-.03-.328-.735-.617-1.215-1.41-2.344-3.289-3.932-5.258-4.444-.529-.138-1.734-.215-2.05-.132-.149.04-.182.08-.264.318-.257.75-.23 1.785.068 2.557.654 1.696 2.857 3.174 5.224 3.507.811.114.799.113 1.387.115.55.002.55.002.081-.09m-11.644 3.065c-.27-.046-5.87-.875-7.543-1.116-.975-.141-1.78-.262-1.787-.27-.008-.007.105-.026.25-.042.236-.026 1.89-.25 5.034-.685.59-.081 1.838-.25 2.772-.374l2.298-.307c.599-.081.599-.081 3.596.323 1.648.223 3.116.42 3.26.438.145.018.276.053.29.076.015.024.018.044.005.044s-.423.08-.914.179a60 60 0 0 0-5.804 1.449c-1.014.305-1.167.335-1.457.285m28.416.013c-.03-.031-1.623-.529-2.473-.773a71 71 0 0 0-3.965-.98c-.48-.1-.908-.194-.949-.21-.104-.04-.159-.03 1.673-.285l3.197-.448c1.598-.226 1.598-.226 6.119.399l5.386.742c.475.065.874.127.886.139.011.012-.412.084-.94.16-1.197.174-5.03.75-7.644 1.15-.786.12-1.238.157-1.29.106" style="fill:#000;stroke-width:.0499511"/></svg>