<svg xmlns="http://www.w3.org/2000/svg" width="80mm" height="20mm" viewBox="0 0 80 20"><g style="fill:#000"><path d="M84.969-83.99a.9.9 0 0 0-.38.08c-.115.035-.215.09-.324.171l-.057.04c-.15.063-.605.107-2.462.14-2.816.019-8.581.035-19.058.055-28.294.055-28.108.05-29.167.585-.546.276-2.204 1.437-2.334 1.635-.099.151-.092.217.224 2.084.321 1.9.334 2.024.206 2.093-.037.02-.068.036-.096.037-.035-.005-.067-.033-.101-.1-.098-.224-.216-.896-.53-2.68-.107-.605-.2-1.107-.209-1.116-.074-.08-1.69 1.136-2.946 2.216-1.277 1.1-1.81 1.276-2.848.94-.637-.206-.758-.218-1.657-.17-.446.025-3.428.164-6.626.31-4.332.2-5.88.283-6.074.33a2.3 2.3 0 0 0-.402.14 1.15 1.15 0 0 0-.519.331 2 2 0 0 0-.206.208c-.186.189-.308.34-.389.65a3 3 0 0 0-.096.294c-.087.33-.186 8.73-.106 9.021a.8.8 0 0 0 .101.222c.07.201.177.246.34.295.446.202.695.125 2.586-.79 1.57-.76 1.527-.749 1.705-.462.135.218.152.252.553.058.204-.05.423-.153.597-.28q.086-.052.156-.109c.283-.17.28-.257.173-.465l-.03-.057c-.041-.126-.023-.204.46-.476.362-.199.974-.503 1.993-1.012 3.272-1.635 4.64-2.325 5.34-2.373q.44.065.75.452c.066.11.132.238.207.382.24.462.144.433 2.312.702 1.27.158 1.983.265 2.392.251.22.007.347-.024.425-.126.16-.155.151-.46.21-.986.306-2.707 1.298-4.396 2.765-4.704.15-.031.257-.052.338-.057q.045 0 .083.003c.132.023.162.14.225.432.562 2.594 4.578 2.732 5.316.183.159-.548.2-.842.498-1.002q.019-.01.039-.019c.399-.187 1.22-.174 3.192-.198 3.256-.04 3.145-.045 3.362.18.17.177.365.274.667.332.23.045 8.74-.025 9.768-.08.866-.046 1.166-.166 1.413-.565l.003-.005c.188-.106.73-.192 1.404-.25.326-.006.712-.011 1.23-.018 1.15-.015 1.74-.023 2.079-.01.206.022.376.05.497.084q.048.021.101.047c.75.368 1.482.132 1.812-.581a1.65 1.65 0 0 0 .013-1.357l-.005-.012a1.46 1.46 0 0 0-.425-.575c-.349-.294-.814-.4-1.272-.16q-.166.085-.316.123-.142.031-.272.035c-.246-.007-.41-.134-.398-.364.013-.236.013-.236 12.423-.264 13.685-.03 12.552-.006 12.664-.276.173-.412.167-.993.05-1.492a2.3 2.3 0 0 0-.064-.513.67.67 0 0 0-.456-.437.37.37 0 0 0-.19-.058c-.093 0-.151-.026-.184-.097a1.6 1.6 0 0 1-.032-.288q0-.05.005-.11c.026-.4.034-.418-.287-.418a.5.5 0 0 0-.16-.03m-8.876 1.064c3.404.003 6.407.013 7.899.029q1.04.02 1.04.055l-.004.028c-.05.042-.23.073-.714.097-1.655.017-6.438.037-12.096.048-11.869.024-16.427.06-21.078.16-3.969.087-5.749.099-5.805.04-.025-.028-.047-.123-.054-.197.085-.048.321-.077.832-.097l.06-.002c.636-.005 2.258-.017 5.008-.035 11.175-.075 19.37-.117 24.912-.126m-32.75.154c.77.003.99.04 1.081.134l.04.057q.02.042.04.096.021.096.039.275c.064.932.057 3.983-.028 4.16a.96.96 0 0 1-.32.308.1.1 0 0 1-.038-.022 27 27 0 0 1-.011-.749c.01-.555.008-1.402-.002-2.145.005-.602.008-1-.03-1.253a1.4 1.4 0 0 0-.024-.25.24.24 0 0 0-.158-.123c-.184-.118-.523-.059-1.14-.044-.606.015-1.952.047-2.991.07-4.524.105-4.503.103-5.227.34a4.47 4.47 0 0 0-.552.253c-.452.234-1.045.583-1.507.896-.21.141-.216-.01.076 1.781.13.806.232 1.506.225 1.558-.009.06-.06.098-.12.11l-.061.004a.2.2 0 0 1-.083-.025 4.4 4.4 0 0 1-.176-.653 73 73 0 0 1-.419-2.582q0-.075.008-.136c.06-.17.323-.424.678-.69l.274-.195c.555-.378 1.236-.741 1.73-.882q.215-.048.477-.082.313-.03.76-.059c.683-.03 1.813-.055 3.855-.095 1.82-.036 2.925-.06 3.604-.057m40.632.791c1.077.004 1.077.04 1.077.18 0 .186 0 .186-10.923.216a2154 2154 0 0 0-26.997.226q-.32.006-.604.007c-.77 0-1.042-.01-1.098-.031a.63.63 0 0 1 .005-.34v-.001a.2.2 0 0 1 .056-.012c.04-.005.09-.01.159-.015 1.473-.06 11.348-.14 21.792-.173a20863 20863 0 0 0 16.533-.057zm-41.78.234c.699 0 1.079.032 1.286.152q.134.112.203.27c.032.114.038.258.038.439q0 .161-.026.288a.9.9 0 0 1-.345.44c-.183.087-.444.13-.808.147a44 44 0 0 1-2.041.064l-.413-.01c-.441-.02-.718-.074-.89-.175a1 1 0 0 1-.108-.095.8.8 0 0 1-.124-.208c-.029-.1-.038-.22-.038-.36q-.001-.161.017-.286a.9.9 0 0 1 .302-.44c.326-.162.975-.198 2.256-.218q.389-.008.691-.008m11.792 1.319c1.003-.002 1.364.02 1.555.096.183.097.328.268.433.486.248.605.193 1.7-.173 2.374-.136.251-.151.23-.098-.17a4.5 4.5 0 0 0 .052-1.064c-.027-.569-.15-1.03-.344-1.206-.238-.215-.4-.28-.428-.194l-.002.005q-.015.053.04.179c.286.628.232 1.696-.123 2.405-.075.15-.138.251-.166.275q-.012.004-.016-.014l.009-.04c.027-.094.05-.246.068-.425.058-.403.068-.784.035-1.118a3 3 0 0 0-.038-.451c-.082-.442-.294-.708-.63-.79-.139-.034-.139-.05-.001.344.143.41.162 1.072.058 1.553l-.02.084q-.018.069-.039.132c-.138.395-.336.784-.3.589.113-.618.112-1.223.018-1.702-.057-.47-.194-.743-.42-.876a.5.5 0 0 0-.128-.077c-.248-.103-.255-.092-.135.206.225.558.242 1.262.045 1.859-.105.321-.271.67-.295.642l-.002-.008a.2.2 0 0 1 .003-.044c.116-.618.116-1.21.02-1.682q-.093-.624-.41-.858a.6.6 0 0 0-.178-.116c-.229-.096-.245-.082-.135.113.328.587.293 1.715-.074 2.408-.16.302-.174.285-.113-.132.179-1.219-.05-2.173-.562-2.348-.213-.073-.212-.075-.108.226.267.77.182 1.866-.188 2.424l-.023.035a1 1 0 0 1-.09.094c-.017-.016 0-.13.042-.373.102-.587.094-1.141-.004-1.573q-.081-.424-.287-.646a.64.64 0 0 0-.227-.178c-.102-.045-.16-.067-.186-.053-.024-.001-.028.014-.013.058.006.044.027.11.061.208.26.75.215 1.543-.129 2.3-.077.168-.153.28-.183.286a.4.4 0 0 1-.004-.073l.007-.027c.122-.406.136-1.08.071-1.634l-.008-.07a3 3 0 0 0-.028-.178c-.048-.275-.119-.497-.208-.603-.167-.198-.356-.28-.439-.236-.047-.004-.07.014-.052.057l.01.022q-.001.05.034.13c.077.17.13.375.158.597.018.247.018.54-.001.802-.031.265-.09.528-.181.767-.064.169-.246.494-.274.503l-.003-.011.005-.02c.153-.493.177-1.095.104-1.616a3 3 0 0 0-.082-.483 1.2 1.2 0 0 0-.087-.276 1 1 0 0 0-.208-.278.5.5 0 0 0-.188-.146c-.24-.103-.269-.083-.181.123.307.715.271 1.64-.092 2.384-.155.32-.159.317-.107-.094.12-.943-.004-1.966-.27-2.215-.183-.173-.62-.317-.493-.163q.03.036.055.081l.034.08q.058.135.096.29c.119.571.044 1.44-.215 2.013-.069.151-.165.296-.2.321a.2.2 0 0 1 0-.058l.002-.008c.153-.398.173-.996.098-1.53-.047-.632-.238-1.054-.555-1.19-.261-.14-.257-.107-.125.291.235.71.18 1.574-.14 2.2-.115.226-.115.226-.09-.496q.006-.178.006-.335a5 5 0 0 0-.011-.452c-.052-.804-.279-1.13-.801-1.283a1 1 0 0 1-.169-.059.15.15 0 0 1-.038-.062l.004-.021a.5.5 0 0 1 .061-.088.14.14 0 0 1 .065-.041c.162-.031.732-.061 1.518-.088.9-.017 2.317-.032 4.589-.053.94-.01 1.639-.016 2.162-.017zm8.828 1.13c.338-.016.47.494.108.599-.223.064-.276.149-.281.44q0 .046-.003.085c-.014.107-.029.19-.042.234-.033-.012-.076-.249-.098-.643a4 4 0 0 1-.006-.369.7.7 0 0 1 .089-.261.4.4 0 0 1 .162-.074.4.4 0 0 1 .07-.01m-3.142.377c.963.004 1.88.033 1.914.085q.039.06.06.106v.096c-.163.085-.563.147-1.141.16l-2.08.053c-1.11.028-1.056.039-1.056-.212 0-.11 1.024-.226 2.06-.284l.08-.001zm-25.664.276c.272 0 .398.351.194.546-.105.1-.224.123-.34.065a.32.32 0 0 1 .146-.611m6.01.107c.072.001.145.03.208.093a.35.35 0 0 1 .046.409.4.4 0 0 1-.063.068c-.212.16-.492.03-.492-.236 0-.204.146-.336.302-.334m6.531 1.305c.012 0 .021.01.021.02a.02.02 0 0 1-.014.02q-.01-.005-.01-.04zm-23.321.014q.024 0 .027.003c-.02.025-.482.1-1.2.183-3.144.368-4.92.515-9.106.756-.68.04-1.157.074-1.504.123-.148.017-.22.031-.28.05-.475.106-.615.28-.78.636-.11.24-.099-.126-.148 5.113-.021 2.23-.036 2.954-.07 3.139a.15.15 0 0 1-.05.076.32.32 0 0 1-.304 0q-.002 0-.005-.006c-.036-.12-.06-.907-.073-1.953l-.002-.393.005-1.697c.018-2.085.074-4.232.15-4.426.186-.474.495-.758.991-.911.377-.117 1.923-.211 8.133-.498 1.965-.09 3.717-.175 3.894-.188h.008c.148-.005.266-.008.314-.007zm7.317.206q.107 0 .141.015c.01.032-.07.11-.252.267-1.148 1-1.92 2.62-2.219 4.669-.046.313-.105.596-.131.628-.018.021-.027.037-.047.043l-.035.001c-.071-.01-.23-.075-.662-.248-.644-.258-.644-.258-.169-.27.401-.01.53-.027.569-.125q.043-.054.016-.147c.006-.134.008-.124-1.164-.256-1.422-.16-1.406-.184.187-.295.317-.022.545-.04.71-.058.174-.001.312-.02.341-.05a.1.1 0 0 0 .024-.04c.058-.04.067-.096.067-.18 0-.062-.012-.102-.07-.131q-.01-.014-.023-.014h-.012v-.001c-.089-.03-.25-.05-.538-.077-.617-.058-1.344-.165-1.427-.21-.084-.047.713-.133 1.447-.157.731-.024.824-.048.83-.282q.021-.082-.005-.13a.09.09 0 0 0-.041-.056l-.017-.01-.009-.003c-.066-.026-.192-.04-.436-.064-.574-.06-1.225-.163-1.308-.21-.048-.026 1.057-.14 1.792-.185.264-.016.357-.084.357-.261v-.032l-.002-.02c-.013-.077-.094-.089-.625-.17-1.217-.185-1.168-.256.227-.324.658-.033.658-.033.778-.167.215-.24.18-.275-.326-.33-.32-.034-.56-.066-.731-.097l-.198-.043c-.297-.087.077-.156 1.12-.198.646-.027.684-.033.758-.125.14-.172.106-.196-.409-.296-.968-.187-.926-.216.426-.29.434-.023.89-.053 1.012-.067zm4.987.253c.24.004.5.033.714.083q.277.086.46.232c.615.663.166 1.578-.924 1.81-.484.102-1.208.064-1.56-.075l-.005-.001-.062-.028c-.904-.462-1.17-1.763-.394-1.93.106-.023.167-.007.188.056a.4.4 0 0 1 .01.066q0 .058-.02.146c-.076.33.027.702.221.96q.063.09.147.156c.1.085.212.141.332.157l.016.002q.068.015.103 0c.098-.017.1-.103.018-.289-.147-.334-.136-.751.024-1.116q.195-.186.568-.228.079-.003.164-.001" style="fill:#000;fill-opacity:1;stroke-width:.0415337" transform="translate(-8.234 85.428)scale(1.01074)"/></g></svg>