<svg xmlns="http://www.w3.org/2000/svg" width="80mm" height="30mm" viewBox="0 0 80 30"><path d="M5.81 28.943c-1.028-.535-1.655-1.922-1.856-4.101-.045-.492-.097-1.045-.116-1.23-.18-1.781-.091-4.542.195-6.026.319-1.652.987-2.859 1.694-3.061.24-.07.24-.07.058.147-.37.44-1.172 2.103-1.065 2.21.02.019.181-.057.36-.17 1.386-.875 4.262-1.676 4.592-1.278.043.051.149.372.235.712.377 1.476 1.054 2.384 1.54 2.065.244-.16.367-.428.661-1.439.265-.913.828-2.439 1.225-3.32.126-.28.23-.531.23-.558s-.31-.039-.69-.025c-.765.026-1.973.283-4.668.993-2.57.677-2.256.536 1.036-.467 1.773-.54 2.565-.736 3.246-.803.38-.037.754-.13 1.018-.25.415-.19.42-.196.879-1.096 1.202-2.36 2.73-4.096 4.13-4.696 1.066-.457 3.435-.938 7.157-1.452 2.13-.294 2.25-.303 2.132-.161-.055.066-.145.12-.198.12s-.265.163-.47.362c-.297.29-.4.46-.524.861-.147.474-.155.677-.159 4.003-.004 3.402 0 3.511.149 3.75.207.336.782.855 1.05.948.38.133.24.211-.378.211-.544 0-.624-.02-.904-.222-.307-.223-.307-.223-1.322-.184-2.349.09-4.729.231-5.747.343-.856.093-1.123.206-.495.21.415.002.435.01.396.17-.023.092-.097.57-.165 1.062-.142 1.029-.116 1.902.067 2.254.144.276.546.663.893.86.236.135.236.135-.299.098-.571-.038-.86-.15-1.114-.43-.312-.343-.363-.675-.363-2.345 0-1.726-.031-1.82-.375-1.14-.56 1.104-.877 2.24-1.34 4.8-.313 1.732-.367 1.931-.603 2.248-.485.65-1.747.624-3.122-.063-.246-.123-.5-.27-.565-.328a.42.42 0 0 0-.227-.105c-.145 0-.483.363-.937 1.006-.967 1.37-2.752 3.836-2.993 4.136-.149.184-.535.612-.858.95-.668.699-.8.74-1.39.431m1.373-1.1c.143-.098.438-.416.656-.707a106 106 0 0 1 1.887-2.344c.82-.997 1.603-1.956 1.74-2.13.135-.174.323-.336.417-.36.117-.029.416.077.944.335.925.451 1.827.701 2.281.633.412-.061.733-.387.872-.884.058-.207.178-1.046.267-1.866s.243-1.96.344-2.534c.109-.627.173-1.25.16-1.562-.02-.497-.032-.526-.275-.69q-.552-.37-1.24.063c-.403.253-.466.312-.86.81-.674.85-1.058 1.719-1.376 3.113-.24 1.056-.377 1.323-.762 1.485-.274.117-.283.115-.778-.153-.592-.32-.781-.332-1.32-.082-1.623.756-3.49 3.047-3.963 4.864-.155.594-.218 1.549-.124 1.883.11.392.65.452 1.13.126M25.47 9.145c-.021-.98-.021-.98-.468-.987s-.447-.008-.47-.399c-.017-.3.002-.391.085-.391.058 0 .124.067.146.149.031.122.101.149.38.149.343 0 .343 0 .343-.719 0-.718 0-.718-.615-.668-1.561.127-2.607.387-2.94.732-.697.72-.832 2.422-.232 2.927.222.187.222.187 2.007.187 1.784 0 1.784 0 1.764-.98m-4.827 10.606c0-.044.034-.1.075-.126.042-.026.168-.22.28-.433.197-.374.203-.421.198-1.541-.006-1.018-.029-1.228-.197-1.77-.19-.614-.19-.614.844-.614.57 0 1.035.012 1.035.027 0 .016-.05.17-.111.344-.062.174-.164.823-.227 1.444-.176 1.727-.317 2.173-.802 2.534-.223.167-1.095.274-1.095.135m-.96-.593c-.445-.445-.526-.741-.485-1.772.03-.72.199-1.794.299-1.892.043-.041.026.196-.127 1.765-.11 1.143-.011 1.53.516 2.013.145.133.24.242.209.242-.03 0-.216-.16-.411-.356m28.456-2.216c-2.541-.123-3.474-.16-7.228-.293-5.096-.181-4.94-.17-5.484-.388-.567-.227-1.142-.717-1.505-1.284-.256-.401-.256-.401-.825-.355-.313.026-1.555.049-2.76.052-2.19.005-2.19.005-2.434-.232-.134-.13-.337-.441-.452-.693-.189-.412-.21-.539-.212-1.277-.001-.745.017-.857.203-1.237.113-.23.205-.44.205-.47s-.15-.03-.335-.003c-.336.05-.336.05-.336-.33 0-.384.06-.443.392-.39.096.015.062-.068-.13-.32-.216-.283-.246-.418-.057-.25.236.207.904.504 1.134.504.186 0 .226-.03.226-.171 0-.13-.066-.196-.269-.27-.52-.187-1.035-.787-1.175-1.368a4.6 4.6 0 0 1-.055-.73c-.008-.856.37-1.471 1.145-1.867.308-.157.466-.177 5.906-.734a579 579 0 0 0 3.95-.414l1.452-.151 4.695-.483c2.397-.246 4.493-.463 4.657-.483.322-.038 2.764-.293 3.912-.408.39-.039 1.379-.14 2.198-.226l2.161-.222a1233 1233 0 0 0 5.03-.52l1.826-.189 1.453-.15c.184-.02 1.794-.185 3.577-.369s3.71-.383 4.284-.444c.574-.06 1.278-.13 1.565-.155.522-.045.522-.045-.008.255-1.616.914-2.248 2.778-1.47 4.332.313.626.812 1.096 1.541 1.448.304.147.482.27.42.29-.06.02-.881.074-1.824.12-.943.047-1.848.099-2.012.115-.403.04-1.378.1-2.459.15-.492.022-1.062.055-1.267.073a51 51 0 0 1-1.267.076c-.491.024-1.363.076-1.937.114s-1.152.07-1.285.07c-.238 0-.243.008-.243.336 0 .267-.026.337-.13.343-1.116.064-1.95.246-2.671.584-1.355.634-1.968 1.611-1.968 3.138 0 .754.2 1.618.502 2.179.32.594.962 1.202 1.578 1.498.533.255.533.255.065.283-1.302.078-2.697-.474-3.082-1.218-.107-.206-.126-.212-.707-.212-.72 0-1.03-.134-1.474-.638-.486-.553-.639-1.034-.636-2.007.002-.66.034-.9.163-1.23.2-.508.537-.925.975-1.203.307-.195.394-.213 1.029-.213.399 0 .693-.03.693-.072 0-.04.11-.1.242-.135.243-.063.243-.063.243-.58 0-.468-.014-.516-.15-.513-.681.018-2.507.125-2.7.158-.186.031-.243.079-.243.2 0 .115-.1.213-.352.346-.553.293-1.117.91-1.424 1.556-.24.504-.272.645-.298 1.289-.065 1.609.515 2.914 1.605 3.613.517.332.582.313.224-.063-.378-.397-.766-1.212-.917-1.927-.16-.749-.11-1.958.103-2.552.187-.517.723-1.291 1.09-1.571.308-.235.36-.16.075.108-.268.252-.658.923-.819 1.41-.17.516-.171 1.493-.003 2.162.403 1.597 1.437 2.481 3.352 2.868.83.168.83.168.345.393-.267.123-.77.31-1.118.414-2.055.613-4.129.744-8.495.533m-3.4-2.181c-.477-1.422-.371-2.9.305-4.269.435-.879 1.159-1.783 1.429-1.783.183 0 .183 0-.034.317-1.123 1.637-1.345 3.653-.612 5.552.314.814.397.84.13.04-.606-1.81-.326-3.614.804-5.201.39-.546.607-.748.875-.811.113-.027.205-.033.205-.014s-.102.187-.227.372c-.31.458-.7 1.32-.864 1.906-.102.365-.134.733-.13 1.49.003.928.022 1.062.242 1.714.13.39.306.826.39.969.083.143.128.194.1.112-.402-1.168-.427-1.29-.462-2.183-.041-1.055.042-1.594.368-2.38.3-.722.692-1.314 1.328-2 .291-.314.514-.586.495-.605s-.415.002-.88.047a320 320 0 0 1-2.856.265c-.246.022-.766.073-1.155.113-.39.04-1.295.123-2.012.185-1.515.132-1.755.154-2.904.267-.747.074-.895.112-1.17.3-.371.256-.458.367-.242.31.146-.038.141-.012-.074.414a5.6 5.6 0 0 0-.611 2.524c0 .787.055 1.102.32 1.832.207.574.243.507.052-.098-.381-1.213-.243-2.586.39-3.859.384-.773.516-.907.894-.907.136 0 .127.038-.11.465-.567 1.029-.83 2.182-.72 3.161.062.545.251 1.258.383 1.44.067.095.073.091.037-.02-.361-1.12-.36-2.237.006-3.277.236-.671.589-1.322.897-1.655.13-.14.25-.189.465-.189.289 0 .289 0 0 .503-.585 1.02-.879 2.345-.748 3.372.07.54.357 1.61.417 1.55.016-.016-.023-.195-.086-.398-.064-.203-.134-.756-.156-1.228-.034-.72-.014-.96.118-1.484.174-.688.547-1.494.938-2.027.221-.301.295-.35.576-.38.177-.018.331-.026.343-.018.011.009-.098.196-.243.415-.848 1.289-1.13 2.984-.745 4.486.169.66.219.6.074-.09-.3-1.427.027-2.907.942-4.265.333-.492.42-.575.648-.612.145-.024.275-.032.288-.018.014.013-.125.268-.309.566-.183.297-.442.83-.576 1.184-.23.61-.242.695-.245 1.686-.004.875.022 1.127.16 1.564.09.287.213.588.272.669.063.086.03-.084-.08-.41-.26-.782-.273-2.02-.028-2.83.205-.678.564-1.358 1.072-2.03.338-.448.408-.503.634-.503.253 0 .253 0 .094.242-.34.516-.756 1.417-.91 1.972-.294 1.053-.196 2.434.236 3.326.082.17.13.243.106.16-.256-.871-.29-1.1-.282-1.9.006-.631.049-.99.162-1.364.19-.628.65-1.492 1.1-2.063.273-.349.388-.438.592-.462.254-.03.254-.03.104.197-.301.457-.731 1.366-.901 1.908-.147.468-.173.706-.17 1.524.005.847.031 1.043.207 1.564.11.328.253.68.317.783q.115.187.064.037c-.293-.843-.35-1.12-.383-1.863-.027-.587-.004-.976.08-1.372.15-.704.68-1.795 1.166-2.4.311-.389.423-.477.63-.497.253-.025.253-.025-.113.584a6.9 6.9 0 0 0-.803 1.897c-.17.623-.165 2.075.01 2.707.128.457.46 1.28.517 1.28.016 0-.048-.228-.141-.506M33.021 9.783c.98-.043 1.019-.051 1.098-.224.098-.216.238-.208-1.666-.096-.779.046-1.446.111-1.482.144-.036.034-.046.111-.023.174.035.09.145.106.55.08.28-.019.964-.054 1.523-.078M60.8 15.87c-.474-.186-.977-.546-1.259-.901-.237-.3-.237-.3.3-.3.535 0 .535 0 .955.385.389.355 1.163.797 1.427.815.061.004.028.034-.075.067-.327.105-.994.072-1.348-.066m1.925-.607c-1.194-.299-1.993-1.507-1.993-3.015 0-1.615.924-2.872 2.247-3.059.98-.138 1.994.604 2.45 1.792.255.662.255 1.815.002 2.519-.46 1.273-1.626 2.033-2.706 1.763m2.087-1.981c.092-.059.168-.157.168-.218 0-.098-.023-.097-.182.007-.14.092-.253.105-.503.055-.321-.063-.321-.063-.321-.992 0-.928 0-.928.357-.993.298-.055.381-.044.503.066.12.11.146.113.146.02 0-.194-.265-.361-.645-.406-.324-.038-.395-.02-.606.158-.24.201-.24.201-.24 1.11 0 .97.063 1.177.4 1.316.201.083.703.017.923-.123m-5.383 1.102q-.404-.032-.41-.255c0-.03.233-.056.519-.056.432 0 .531.024.594.141.066.124.045.145-.165.168a3.4 3.4 0 0 1-.538.002m-.63-.888a3 3 0 0 1-.078-.339c0-.033.222-.05.495-.037.495.022.495.022.588.338.093.317.093.317-.417.317s-.51 0-.588-.28m-.103-.665c-.028-.027-.05-.178-.05-.335 0-.286 0-.286.438-.286.43 0 .438.004.484.233.086.43.08.438-.388.438-.24 0-.457-.022-.484-.05m.06-1.198c.072-.384.08-.391.453-.391.331 0 .331 0 .331.335s0 .335-.418.335-.418 0-.366-.279m.234-.797q.043-.117.34-.116c.404 0 .34.179-.074.21-.256.018-.303.002-.266-.094m.27-.433c.048-.144.43-.165.43-.023 0 .08-.072.116-.23.116q-.228 0-.2-.093m.43-.457c0-.017.05-.049.111-.073s.112-.01.112.03-.05.072-.112.072-.112-.013-.112-.03m15.627-3.73c-.844-.3-1.453-1.155-1.57-2.202-.1-.892.308-1.969.933-2.463 1.16-.916 2.607-.54 3.27.85.963 2.017-.744 4.49-2.633 3.815m-55.46-.672c-.07-.186-.175-.338-.23-.338-.057 0-.102-.077-.102-.172 0-.219.242-.309 1.23-.457 1.081-.162 5.335-.854 5.532-.9.092-.021.168-.082.168-.134 0-.16.147-.254.339-.218.198.038.253.167.07.167-.077 0-.111.079-.111.26 0 .144.033.262.074.262s.075.167.075.372c0 .207-.034.373-.077.373-.156 0-3.234.45-4.08.596-1.218.21-2.489.447-2.635.49-.092.027-.157-.051-.253-.301m8.312-.964c0-.095-.082-.12-.399-.12-.465 0-.645-.14-.645-.508 0-.234.004-.237.373-.237.323 0 .373.02.373.15s.05.149.41.149c.314 0 .41-.026.41-.112 0-.081.082-.112.297-.112.249 0 .298.025.298.149 0 .083.05.149.112.149s.112.034.112.075-.051.074-.113.074-.152.084-.199.186c-.073.161-.133.187-.439.187-.195 0-.408.02-.472.045q-.117.044-.118-.075" style="fill:#000;stroke-width:.0745164"/></svg>