<svg xmlns="http://www.w3.org/2000/svg" width="110mm" height="30mm" viewBox="0 0 110 30"><path d="M5.155 25.814c-.383-.716-1.674-5.21-2.128-7.411-.451-2.188-.628-4.248-.386-4.49.33-.331 13.267-2.23 18.91-2.775 3.292-.318 3.996-.33 5.047-.085 2.95.688 3.302.594 8.254-2.213 3.39-1.923 4.154-2.535 4.154-3.33 0-.341.196-.817.436-1.057l.437-.436.617.519c.6.505.721.52 4.41.548 2.087.015 6.239.121 9.227.235 5.429.207 5.433.208 5.867.741l.434.534h41.573l1.006-1.28c.554-.705 1.095-1.227 1.203-1.16s.197.63.197 1.25v1.128l1.591.12c.875.067 1.69.182 1.81.257.286.177.286 1.935 0 2.469-.152.285-.446.412-.958.412h-.738v1.145c0 .754-.109 1.236-.317 1.409-.245.203-1.76.227-6.685.106l-6.368-.156-.88 1.19c-.653.885-1.082 1.248-1.677 1.42-.54.157-4.37.21-11.877.168l-11.078-.062.028-.64c.015-.351.094-.84.176-1.086.145-.438.08-.45-3.598-.596l-3.745-.15-.512.594c-.602.7-.083.675-8.488.42l-5.912-.18v.67c0 .851-.472 1.767-1.133 2.2-.798.524-3.89.711-4.882.297-.903-.378-1.653-1.444-1.655-2.352 0-.543-.058-.594-.534-.475-.848.213-4.493 2.279-5.737 3.252-.625.489-1.368 1.303-1.652 1.81-.617 1.103-.906 1.118-2.899.147-.912-.445-1.534-.62-1.921-.542-.315.064-3.545 1.375-7.177 2.914-6.246 2.646-10.718 4.465-11.759 4.78-.335.102-.527.03-.68-.259M43.853 15.22c.264-.304.48-.835.48-1.18v-.627h-1.69c-1.523 0-1.705.043-1.83.441-.078.243-.083.674-.011.959.071.284.039.517-.072.517-.32 0-1.085-1.081-1.085-1.534 0-.323-.126-.397-.586-.344-.894.103-.92 1.043-.053 1.91l.668.669 1.85-.13c1.643-.113 1.903-.19 2.329-.68" style="fill:#000;stroke-width:.213052"/></svg>